PathFileType	4	(X/Y/Z)	./resultDataOpenSim/trcMotMarkerGrf/sub10/qtm-03-02.trc
DataRate	CameraRate	NumFrames	NumMarkers	Units	OrigDataRate	OrigDataStartFrame	OrigNumFrames
250.000000	250.000000	14	24	m	250.000000	421	481
Frame#	Time	L.Toe.Tip			R.Toe.Tip			L.Ankle.Lat			R.Ankle.Lat			L.Ankle.Med			R.Ankle.Med			L.Heel			R.Heel			L.Knee.Lat			R.Knee.Lat			L.Knee.Med			R.Knee.Med			L.Thigh.Upper			R.Thigh.Upper			L.ASIS			R.ASIS			V.Sacral			L.Acromium			R.Acromium			C7			L.Elbow			R.Elbow			L.Wrist.Lat			R.Wrist.Lat
		X1	Y1	Z1	X2	Y2	Z2	X3	Y3	Z3	X4	Y4	Z4	X5	Y5	Z5	X6	Y6	Z6	X7	Y7	Z7	X8	Y8	Z8	X9	Y9	Z9	X10	Y10	Z10	X11	Y11	Z11	X12	Y12	Z12	X13	Y13	Z13	X14	Y14	Z14	X15	Y15	Z15	X16	Y16	Z16	X17	Y17	Z17	X18	Y18	Z18	X19	Y19	Z19	X20	Y20	Z20	X21	Y21	Z21	X22	Y22	Z22	X23	Y23	Z23	X24	Y24	Z24

421	1.68	1.4781487	0.13252882	-0.13101814	0.70700333	0.037748123	-0.012528556	1.3519432	0.091555888	-0.16666552	0.58094577	0.088862792	0.038153467	1.3479509	0.11438403	-0.088175714	0.60178608	0.11203985	-0.046323534	1.3106269	0.034789797	-0.12252473	0.52062335	0.083401947	-0.0034970797	1.1818631	0.44698053	-0.18807288	0.78969648	0.43196186	0.076272954	1.1940737	0.41835746	-0.068076506	0.81451209	0.43257985	-0.050726472	1.0458262	0.80031451	-0.2301356	0.88480592	0.82941143	0.12791176	1.0738226	0.91035353	-0.14610901	0.9871108	0.913087	0.091529821	0.84185393	0.91773493	-0.10042507	0.98582819	1.3773318	-0.19408725	0.94516409	1.3756898	0.12764004	0.88393526	1.4071617	-0.048406687	0.80922914	1.1006437	-0.29335743	0.97738015	1.0219078	0.23044681	0.84082036	0.86775503	-0.34789936	1.2308007	1.0566248	0.2392938
422	1.684	1.4863738	0.13216455	-0.13118532	0.70713356	0.03775772	-0.012513215	1.3602019	0.091149726	-0.16669711	0.581699	0.090197993	0.038119011	1.3562647	0.11397672	-0.088238442	0.60275665	0.11302435	-0.046266282	1.3189156	0.034359913	-0.12253957	0.52127465	0.085262626	-0.0034127177	1.190267	0.44685165	-0.1878634	0.79315005	0.4314479	0.076168099	1.2020665	0.41805751	-0.068107071	0.81865516	0.43173264	-0.050759562	1.0531028	0.79888551	-0.23001401	0.88918021	0.82841482	0.12707343	1.0805044	0.90884862	-0.14534134	0.99210375	0.91165366	0.091935412	0.84850172	0.91626434	-0.10183118	0.99229251	1.3757944	-0.19443312	0.9512801	1.3744073	0.1272111	0.88992918	1.4058615	-0.04907208	0.8150798	1.0999717	-0.2943355	0.98498146	1.020435	0.22886609	0.844968	0.86717375	-0.34956516	1.2381009	1.0566994	0.23746331
423	1.688	1.4940938	0.13137069	-0.13132621	0.70728423	0.037775139	-0.012487781	1.367912	0.090567039	-0.16676113	0.58249837	0.091665342	0.038118599	1.3640593	0.11331618	-0.088323931	0.60380459	0.11407556	-0.046177258	1.3265785	0.033754306	-0.12265421	0.52204191	0.087196933	-0.003304686	1.1987041	0.44672574	-0.18764584	0.79670612	0.43094255	0.076074531	1.2103956	0.41788508	-0.068093532	0.82288604	0.4308689	-0.050778508	1.0603738	0.79757111	-0.22992253	0.89362617	0.82748148	0.12620982	1.0871971	0.90738653	-0.14458941	0.99717223	0.91029271	0.092350969	0.85522844	0.91487584	-0.10322894	0.99877378	1.3743281	-0.19480575	0.95743745	1.3731707	0.12677536	0.89594213	1.4046369	-0.049781323	0.82104422	1.0993202	-0.29531992	0.99256143	1.0189822	0.22720071	0.84927571	0.86662783	-0.35124745	1.2453788	1.0567518	0.2356579
424	1.692	1.501331	0.13017461	-0.13147833	0.70745587	0.037787074	-0.012466748	1.3751029	0.089806961	-0.16685245	0.58336874	0.093180786	0.038169673	1.3713665	0.11242054	-0.088419189	0.60493401	0.11519752	-0.046055091	1.3336471	0.032988661	-0.12281989	0.5229271	0.089226632	-0.0031780027	1.2071589	0.44659955	-0.18743532	0.80036949	0.4304398	0.075986627	1.2190047	0.41784535	-0.068037423	0.82721188	0.42997611	-0.050787319	1.0676279	0.79641904	-0.22987625	0.89817622	0.82660414	0.12533062	1.0939094	0.90597619	-0.14385713	1.0023021	0.90899923	0.092783165	0.86204739	0.91358842	-0.10462113	1.0052797	1.372933	-0.19520593	0.96362112	1.3719859	0.12633957	0.90198498	1.4034847	-0.050532505	0.82709782	1.098675	-0.29629503	1.0001187	1.0175491	0.2254593	0.85374835	0.86611357	-0.35294497	1.2526355	1.0567842	0.23387829
425	1.696	1.5081098	0.12860576	-0.13168598	0.70764125	0.03777977	-0.012465803	1.381801	0.088863744	-0.16695614	0.58433474	0.094705567	0.038285157	1.3782283	0.11131251	-0.088512853	0.60615492	0.1163924	-0.045906311	1.3401415	0.032080462	-0.12299905	0.52393182	0.091380496	-0.0030481748	1.2156151	0.44647173	-0.18723781	0.80414888	0.42994038	0.075900039	1.2277973	0.41792227	-0.067950853	0.83164245	0.4290565	-0.050786288	1.0748498	0.79547332	-0.22987729	0.90285199	0.82577149	0.12443325	1.1006535	0.90462152	-0.14314747	1.0075296	0.90776145	0.093210319	0.86897155	0.91239921	-0.10600388	1.0118172	1.371602	-0.19563394	0.96983669	1.3708561	0.1258966	0.90805664	1.4024126	-0.051321734	0.83323684	1.0980248	-0.29726738	1.007648	1.0161386	0.22364846	0.85839707	0.86562967	-0.3546621	1.2598718	1.0567955	0.2321207
426	1.7	1.514456	0.12669859	-0.13197054	0.70782847	0.037743261	-0.01249902	1.3880287	0.087738242	-0.16705651	0.58542784	0.096279002	0.038481412	1.3846732	0.11002743	-0.088592067	0.60748086	0.11765756	-0.045740799	1.3460806	0.031044306	-0.1231702	0.52506132	0.09367473	-0.0029325101	1.2240569	0.44634489	-0.18706036	0.80805568	0.42944854	0.075811793	1.2366779	0.41808137	-0.067852444	0.83618719	0.42811755	-0.050767197	1.0820172	0.79475646	-0.22991428	0.90765861	0.82496723	0.12350584	1.1074401	0.90333827	-0.14246777	1.0129702	0.9065663	0.093574497	0.87598554	0.91128146	-0.10734623	1.0183754	1.3703331	-0.19609593	0.97614628	1.3697618	0.12540696	0.91419494	1.4013793	-0.052098813	0.83947489	1.0973715	-0.29825696	1.0151445	1.0147588	0.22177175	0.86323274	0.86517755	-0.35640536	1.2670863	1.0567798	0.23037536
427	1.704	1.5203887	0.12451404	-0.13230622	0.70801428	0.037681397	-0.012570702	1.3938074	0.086444142	-0.16714249	0.58668962	0.09797102	0.038763922	1.3906858	0.10865001	-0.088632619	0.60892371	0.11899123	-0.045567523	1.3514939	0.029899143	-0.12331002	0.52631544	0.096108338	-0.0028328905	1.2324737	0.44622618	-0.1869133	0.81210169	0.42896484	0.075724426	1.2455911	0.41829353	-0.067761829	0.84085699	0.42716823	-0.050718114	1.0891096	0.7942599	-0.22996995	0.91259454	0.82417702	0.12254157	1.1142772	0.90215226	-0.14182298	1.0187029	0.90541212	0.09383492	0.8830516	0.9102201	-0.10860225	1.0249456	1.3691317	-0.19659291	0.98268495	1.368661	0.1247986	0.92044251	1.4003381	-0.052819349	0.84581985	1.0967287	-0.29927529	1.0226072	1.0134177	0.21983444	0.86825216	0.86475183	-0.35817192	1.2742782	1.0567308	0.22863222
428	1.708	1.5259094	0.12215661	-0.1326238	0.70821655	0.037616647	-0.012672156	1.3991602	0.085000597	-0.16720391	0.5881465	0.099818047	0.039090011	1.3962088	0.10733439	-0.088604516	0.61049285	0.12039578	-0.045396877	1.3564222	0.028666425	-0.1233938	0.52768831	0.098670749	-0.0027438819	1.2408593	0.44612224	-0.18680182	0.81629495	0.42848617	0.075640672	1.2545231	0.41855006	-0.067693993	0.84566671	0.42621527	-0.050633014	1.0961193	0.79395322	-0.23003071	0.91766648	0.82339556	0.12154738	1.1211764	0.90107012	-0.14121076	1.024675	0.90431043	0.094008267	0.89013966	0.90923196	-0.10975174	1.0315358	1.368003	-0.19711759	0.98955774	1.3675304	0.12402474	0.92679591	1.3992925	-0.053507442	0.85226152	1.096104	-0.30031411	1.0300338	1.0121197	0.21784149	0.87344801	0.86434467	-0.35995453	1.2814539	1.0566421	0.22689064
429	1.712	1.5310127	0.11971946	-0.13285404	0.7084622	0.037575803	-0.012788431	1.4041152	0.083425086	-0.16722843	0.58977602	0.10177903	0.039358995	1.4012311	0.10618556	-0.08848725	0.61219637	0.12187468	-0.045241055	1.3609122	0.027359723	-0.12340907	0.52918369	0.10135489	-0.0026736189	1.2492056	0.44603214	-0.18672172	0.8206391	0.4280102	0.075558316	1.2634761	0.41885673	-0.067656405	0.85063379	0.42525995	-0.050514256	1.1030603	0.79379879	-0.23009483	0.92289534	0.82262311	0.12053739	1.1281449	0.90008713	-0.14063218	1.0308009	0.9032659	0.094130066	0.89724874	0.90833319	-0.11080114	1.0381499	1.3669493	-0.19767104	0.99665675	1.3664114	0.12314431	0.93323406	1.3982697	-0.054207738	0.85878365	1.095489	-0.30135552	1.0374217	1.0108677	0.21579502	0.8788201	0.86395723	-0.36175176	1.2886215	1.0565078	0.22515639
430	1.716	1.5357258	0.11717169	-0.13298959	0.70876055	0.037563674	-0.012904215	1.408701	0.081734751	-0.16720409	0.5914949	0.1037578	0.039464276	1.4059025	0.10506341	-0.088284029	0.61404346	0.12342893	-0.045105824	1.3650047	0.025990341	-0.12335296	0.5308189	0.10416465	-0.0026430063	1.2575032	0.44594568	-0.18666775	0.82513739	0.42753741	0.075476634	1.272441	0.41921751	-0.067647467	0.85577294	0.42430358	-0.050367298	1.1099631	0.79375978	-0.23016971	0.92830715	0.82185776	0.11952671	1.1351778	0.89921334	-0.14009891	1.0370348	0.90226407	0.094224938	0.90439344	0.9075189	-0.11175422	1.0447854	1.3659672	-0.19825984	1.0037101	1.365386	0.12229064	0.93974709	1.3973008	-0.054927518	0.86537942	1.0948719	-0.30238794	1.0447748	1.0096653	0.21369799	0.88437137	0.86359497	-0.36356534	1.2957864	1.0563239	0.2234321
431	1.72	1.5401111	0.11437924	-0.1330812	0.70910079	0.037560425	-0.013003972	1.4129402	0.07994662	-0.1671222	0.59321903	0.10571154	0.039391997	1.4104429	0.10366461	-0.088024189	0.61604816	0.12505477	-0.044988567	1.3687029	0.024607499	-0.12322766	0.53261345	0.10711077	-0.0026706241	1.2657427	0.44584721	-0.1866411	0.82979425	0.42707096	0.07540002	1.2813661	0.41961526	-0.067660701	0.86109119	0.42335418	-0.050197168	1.1168614	0.79380156	-0.230262	0.93391865	0.82109541	0.11853592	1.1422694	0.89846767	-0.13962702	1.0433122	0.90127677	0.094334976	0.91157379	0.90678338	-0.11260176	1.0514462	1.3650453	-0.19887873	1.0105577	1.3645013	0.12154175	0.94632623	1.3964112	-0.05565047	0.87205197	1.0942553	-0.30341144	1.0521026	1.0085143	0.21155686	0.89010479	0.86325816	-0.3653937	1.3029492	1.0560873	0.22171568
432	1.724	1.5442221	0.11127648	-0.13317135	0.70947131	0.037545387	-0.013075046	1.416856	0.078077034	-0.16698177	0.59494634	0.10770894	0.039243519	1.4149105	0.10185889	-0.087742209	0.61823005	0.12674514	-0.044890848	1.3719465	0.023349104	-0.12304429	0.53458212	0.1102019	-0.0027659184	1.2739134	0.44572264	-0.18664577	0.83461425	0.42661553	0.075333768	1.2901644	0.42001352	-0.06769217	0.86658742	0.42242472	-0.050009306	1.1237907	0.7938904	-0.23037362	0.93972797	0.82033106	0.11758684	1.1494214	0.89785872	-0.13923009	1.0495218	0.90027044	0.094536912	0.91877911	0.90612629	-0.11333173	1.058138	1.3641708	-0.19951644	1.0172501	1.3637487	0.12087548	0.95295807	1.3955964	-0.056370009	0.87880515	1.0936521	-0.30443198	1.0594121	1.0074153	0.20937847	0.89602818	0.86294454	-0.36723676	1.3101037	1.0557937	0.22000346
433	1.728	1.5481103	0.10791731	-0.1332996	0.70986893	0.037511184	-0.013108829	1.4204898	0.076144554	-0.1668046	0.59673128	0.10983893	0.039119191	1.4191864	0.099777463	-0.087457383	0.62060945	0.12849442	-0.044824889	1.3746532	0.022411845	-0.12281581	0.53673273	0.11344014	-0.0029339656	1.2820054	0.44556394	-0.18668214	0.83960223	0.42617618	0.075280646	1.2987903	0.42038843	-0.067740089	0.87226005	0.42152619	-0.049807145	1.1307844	0.79399505	-0.23050275	0.9457144	0.81955578	0.11668716	1.1566327	0.89738104	-0.13891601	1.0555997	0.89923733	0.094875045	0.92601559	0.90553731	-0.11393921	1.0648596	1.3633408	-0.20016975	1.023916	1.3630982	0.12022929	0.95963182	1.3948237	-0.057100111	0.8856363	1.0930663	-0.30545422	1.066706	1.0063677	0.2071664	0.90215378	0.86264923	-0.36910117	1.3172428	1.05544	0.2182918
434	1.732	1.5518806	0.104334	-0.13355064	0.71029349	0.037460719	-0.013108519	1.4239101	0.074174424	-0.16664887	0.59862307	0.11212983	0.03903535	1.4231567	0.097610386	-0.087174163	0.62320419	0.13029907	-0.044802233	1.3768126	0.021904025	-0.1225431	0.53907221	0.11682252	-0.003185844	1.2900124	0.44536733	-0.18674644	0.84476812	0.42575499	0.075243651	1.3072736	0.42074163	-0.067802721	0.87811358	0.42066281	-0.049585846	1.1378605	0.79409278	-0.23064387	0.95184743	0.81875825	0.11582704	1.1638929	0.89702633	-0.13868297	1.0617021	0.89823892	0.09523752	0.93330251	0.90499376	-0.11442456	1.0716096	1.3625596	-0.20083955	1.0306392	1.3625212	0.11955592	0.96634178	1.3940585	-0.057863978	0.89253665	1.0924871	-0.30647884	1.0739843	1.0053683	0.20492297	0.90848638	0.86236004	-0.37099336	1.3243681	1.0550273	0.21657699
